<svg xmlns="http://www.w3.org/2000/svg" style="display:none">
  <symbol id="icon-users" viewBox="0 0 24 24">
    <path d="M16 11c1.66 0 3-1.79 3-4s-1.34-4-3-4-3 1.79-3 4 1.34 4 3 4Z" fill="#fbfbfb"/>
    <path d="M8 11c1.66 0 3-1.79 3-4S9.66 3 8 3 5 4.79 5 7s1.34 4 3 4Z" fill="#fbfbfb"/>
    <path d="M8 13c-2.67 0-8 1.34-8 4v2h16v-2c0-2.66-5.33-4-8-4Z" fill="#fbfbfb"/>
    <path d="M16 13c-.29 0-.62.02-.97.05 1.33.96 2.97 2.36 2.97 3.95v2h6v-2c0-2.66-5.33-4-8-4Z" fill="#fbfbfb"/>
  </symbol>
  <symbol id="icon-user" viewBox="0 0 24 24">
    <path d="M12 12a4 4 0 1 0 0-8 4 4 0 0 0 0 8Z" fill="currentColor"/>
    <path d="M5 20c0-3.314 3.134-6 7-6s7 2.686 7 6v1H5v-1Z" fill="currentColor"/>
  </symbol>
  <symbol id="icon-check" viewBox="0 0 24 24">
    <path d="m9.55 17.42-4.75-4.75 1.41-1.42 3.34 3.34 8.24-8.24 1.41 1.42-9.65 9.65Z" fill="#54be96"/>
  </symbol>
  <symbol id="icon-star" viewBox="0 0 16 16">
    <path d="M8 1.333l2.059 4.171 4.603.669-3.331 3.248.786 4.589L8 11.845l-4.117 2.165.786-4.589-3.331-3.248 4.603-.669L8 1.333Z" fill="currentColor"/>
  </symbol>
  <symbol id="icon-heart" viewBox="0 0 24 24">
    <path d="M12.1 21.35l-1.1-1c-5.05-4.56-8.4-7.59-8.4-11.3C2.6 6.04 4.96 3.7 8 3.7c1.72 0 3.37.8 4.4 2.06c1.03-1.26 2.68-2.06 4.4-2.06c3.04 0 5.4 2.34 5.4 5.35c0 3.71-3.35 6.74-8.4 11.3l-1.1 1Z" fill="none" stroke="currentColor" stroke-width="1.8" stroke-linecap="round" stroke-linejoin="round"/>
  </symbol>
  <symbol id="icon-heart-filled" viewBox="0 0 24 24">
    <path d="M12.1 21.35l-1.1-1c-5.05-4.56-8.4-7.59-8.4-11.3C2.6 6.04 4.96 3.7 8 3.7c1.72 0 3.37.8 4.4 2.06c1.03-1.26 2.68-2.06 4.4-2.06c3.04 0 5.4 2.34 5.4 5.35c0 3.71-3.35 6.74-8.4 11.3l-1.1 1Z" fill="currentColor"/>
  </symbol>
  <symbol id="icon-eye" viewBox="0 0 24 24">
    <path d="M1 12s4-8 11-8s11 8 11 8s-4 8-11 8S1 12 1 12Z" fill="none" stroke="currentColor" stroke-width="1.8" stroke-linecap="round" stroke-linejoin="round"/>
    <circle cx="12" cy="12" r="3" fill="none" stroke="currentColor" stroke-width="1.8"/>
  </symbol>
  <symbol id="icon-eye-off" viewBox="0 0 24 24">
    <path d="M1 12s4-8 11-8s11 8 11 8s-4 8-11 8S1 12 1 12Z" fill="none" stroke="currentColor" stroke-width="1.8" stroke-linecap="round" stroke-linejoin="round"/>
    <circle cx="12" cy="12" r="3" fill="none" stroke="currentColor" stroke-width="1.8"/>
    <path d="M2 2l20 20" fill="none" stroke="currentColor" stroke-width="1.8" stroke-linecap="round" stroke-linejoin="round"/>
  </symbol>
</svg>
