<svg xmlns="http://www.w3.org/2000/svg" style="display:none">
  <symbol id="icon-users" viewBox="0 0 24 24">
    <path d="M16 11c1.66 0 3-1.79 3-4s-1.34-4-3-4-3 1.79-3 4 1.34 4 3 4Z" fill="#fbfbfb"/>
    <path d="M8 11c1.66 0 3-1.79 3-4S9.66 3 8 3 5 4.79 5 7s1.34 4 3 4Z" fill="#fbfbfb"/>
    <path d="M8 13c-2.67 0-8 1.34-8 4v2h16v-2c0-2.66-5.33-4-8-4Z" fill="#fbfbfb"/>
    <path d="M16 13c-.29 0-.62.02-.97.05 1.33.96 2.97 2.36 2.97 3.95v2h6v-2c0-2.66-5.33-4-8-4Z" fill="#fbfbfb"/>
  </symbol>
  <symbol id="icon-check" viewBox="0 0 24 24">
    <path d="m9.55 17.42-4.75-4.75 1.41-1.42 3.34 3.34 8.24-8.24 1.41 1.42-9.65 9.65Z" fill="#54be96"/>
  </symbol>
</svg>
